<svg width="440" height="129" xmlns="http://www.w3.org/2000/svg" xmlns:xlink="http://www.w3.org/1999/xlink" preserveAspectRatio="xMidYMid meet">
 <defs>
  <path id="a2nkyNfNsb" d="m640.92,247.69c0,0 0,0 0,0c0,78.95 0,122.81 0,131.58c0,0 0,0 0,0c-384,0 -597.33,0 -640,0c0,0 0,0 0,0c0,-78.95 0,-122.81 0,-131.58c0,0 0,0 0,0c384,0 597.33,0 640,0z"/>
  <path id="c47kjMKrU0" d="m192.83,334.59c0,1.09 -0.42,1.97 -1.21,2.72c-0.79,0.75 -1.76,1.13 -2.84,1.13c-0.01,0 -0.08,0 -0.09,0c-1.08,0 -2.05,-0.38 -2.84,-1.13c-0.79,-0.71 -1.21,-1.63 -1.21,-2.72c0,-2.89 0,-26 0,-28.89c0,-4.64 1.71,-8.65 5.18,-11.96c3.47,-3.26 7.61,-4.93 12.5,-4.93c4.89,0 9.03,1.63 12.5,4.93c3.47,3.31 5.19,7.28 5.19,11.96c0,4.64 -1.72,8.61 -5.19,11.92c-3.42,3.3 -7.61,4.97 -12.5,4.97c-0.63,0 -3.79,0 -9.49,0c0,7.2 0,11.2 0,12zm9.53,-19.82c2.64,0 4.9,-0.87 6.78,-2.67c1.84,-1.76 2.76,-3.89 2.76,-6.4c0,-2.51 -0.92,-4.68 -2.76,-6.44c-1.88,-1.8 -4.14,-2.67 -6.78,-2.67c-2.63,0 -4.89,0.87 -6.77,2.67c-1.84,1.8 -2.76,3.93 -2.76,6.44c0,0.61 0,3.63 0,9.07c5.72,0 8.9,0 9.53,0z"/>
  <path id="c1I7lDvEKu" d="m263.03,312.52c0.25,0.54 0.42,1.08 0.42,1.63c0,0.46 -0.08,0.87 -0.25,1.33c-0.38,1.01 -1.09,1.72 -2.13,2.18c-3.1,1.34 -7.19,3.09 -12.25,5.27c-6.27,2.71 -10,4.3 -11.08,4.81c1.67,2.04 4.3,3.05 7.9,3.05c2.38,0 4.51,-0.67 6.48,-2.01c1.88,-1.3 3.22,-3.01 3.97,-5.1c0.63,-1.76 1.93,-2.59 3.85,-2.59c1.38,0 2.47,0.54 3.3,1.63c0.5,0.67 0.75,1.38 0.75,2.13c0,0.46 -0.08,0.92 -0.25,1.38c-1.29,3.64 -3.59,6.56 -6.9,8.78c-3.34,2.3 -7.06,3.47 -11.2,3.47c-5.27,0 -9.83,-1.8 -13.55,-5.35c-3.76,-3.6 -5.64,-7.9 -5.64,-12.92c0,-5.06 1.88,-9.37 5.64,-12.92c3.77,-3.6 8.28,-5.35 13.55,-5.35c3.8,0 7.32,1 10.45,2.97c3.14,1.88 5.44,4.43 6.94,7.61m-17.39,-2.81c-3.05,0 -5.69,1.05 -7.82,3.1c-2.13,2.05 -3.18,4.56 -3.18,7.48c0,0.02 0,0.09 0,0.21c11.17,-4.79 17.37,-7.45 18.61,-7.98c-1.67,-1.89 -4.18,-2.81 -7.61,-2.81"/>
  <path id="c2Cub2okq3" d="m278.63,337.31c-0.8,0.75 -1.76,1.13 -2.85,1.13c0,0 -0.07,0 -0.08,0c-1.09,0 -2.05,-0.38 -2.84,-1.13c-0.8,-0.71 -1.21,-1.63 -1.21,-2.72c0,-1.74 0,-15.65 0,-17.39c0,-4.22 1.58,-7.86 4.72,-10.87c3.14,-3.01 6.94,-4.52 11.41,-4.52c4.44,0 8.2,1.51 11.38,4.52c3.13,3.01 4.72,6.6 4.72,10.87c0,1.74 0,15.65 0,17.39c0,1.09 -0.42,1.97 -1.21,2.72c-0.75,0.75 -1.71,1.13 -2.84,1.13c-0.01,0 -0.08,0 -0.09,0c-1.13,0 -2.05,-0.38 -2.88,-1.13c-0.8,-0.71 -1.21,-1.63 -1.21,-2.72c0,-1.74 0,-15.65 0,-17.39c0,-2.09 -0.76,-3.89 -2.3,-5.35c-1.55,-1.47 -3.43,-2.22 -5.65,-2.22c-2.21,0 -4.1,0.75 -5.64,2.22c-1.55,1.46 -2.3,3.26 -2.3,5.35c0,1.16 0,6.96 0,17.39c-0.23,1.31 -0.6,2.22 -1.13,2.72z"/>
  <path id="c1BOsh7ruQ" d="m319.27,289.98c0.79,0.75 1.21,1.67 1.21,2.72c0,0.61 0,3.68 0,9.2c2.99,0 4.64,0 4.98,0c1.08,0 2.05,0.37 2.84,1.12c0.79,0.76 1.21,1.68 1.21,2.72c0,0.01 0,0.04 0,0.04c0,1.09 -0.42,1.97 -1.21,2.72c-0.79,0.75 -1.76,1.13 -2.84,1.13c-0.34,0 -1.99,0 -4.98,0c0,11.29 0,17.56 0,18.82c0,0.62 0.21,1.12 0.67,1.54c0.46,0.42 1,0.63 1.67,0.63c0.27,0 2.41,0 2.68,0c1.09,0 2.05,0.38 2.84,1.13c0.8,0.75 1.21,1.67 1.21,2.72c0,0 0,0.07 0,0.08c0,1.09 -0.41,1.97 -1.21,2.72c-0.79,0.75 -1.75,1.13 -2.84,1.13c-0.27,0 -2.45,0 -2.72,0c-2.88,0 -5.35,-0.96 -7.44,-2.93c-2.05,-1.97 -3.05,-4.31 -3.05,-7.07c0,-3.58 0,-32.21 0,-35.79c0,-1.04 0.41,-1.96 1.21,-2.71c0.79,-0.76 1.75,-1.13 2.84,-1.13c0.01,0 0.03,0 0.09,0c1.36,0.3 2.31,0.71 2.84,1.21z"/>
  <path id="b3goSZoVH" d="m368.61,307.21c3.76,3.59 5.64,7.9 5.64,12.92c0,1.44 0,13.02 0,14.46c0,1.09 -0.42,1.97 -1.21,2.72c-0.8,0.75 -1.76,1.13 -2.85,1.13c0,0 -0.07,0 -0.08,0c-1.09,0 -2.05,-0.38 -2.84,-1.13c-0.8,-0.71 -1.22,-1.63 -1.22,-2.72c-2.55,2.55 -6.18,3.85 -11.03,3.85c-5.27,0 -9.83,-1.8 -13.55,-5.35c-3.76,-3.6 -5.64,-7.91 -5.64,-12.92c0,-5.06 1.88,-9.37 5.64,-12.92c3.76,-3.6 8.28,-5.35 13.55,-5.35c5.31,-0.05 9.82,1.75 13.59,5.31m-21.41,5.51c-2.13,2.05 -3.18,4.52 -3.18,7.45c0,2.92 1.05,5.39 3.18,7.48c2.17,2.05 4.76,3.05 7.82,3.05c3.05,0 5.64,-1 7.77,-3.05c2.18,-2.05 3.22,-4.56 3.22,-7.48c0,-2.89 -1.08,-5.4 -3.22,-7.45c-2.17,-2.04 -4.76,-3.09 -7.77,-3.09c-3.06,0 -5.65,1.05 -7.82,3.09"/>
  <path id="fhdyB3217" d="m427.1,296.84c0.75,0.75 1.09,1.63 1.09,2.59c0,0.17 0,0.29 -0.05,0.42c-0.16,1.17 -0.71,2.05 -1.63,2.67c0,0.01 -0.03,0.08 -0.04,0.09c-0.75,0.5 -1.5,0.75 -2.34,0.75c-0.17,0 -0.29,0 -0.46,-0.04c-1,-0.09 -1.84,-0.5 -2.55,-1.26c-3.51,-3.68 -7.9,-5.47 -13.17,-5.47c-4.93,0 -9.16,1.67 -12.63,4.97c-3.47,3.35 -5.22,7.36 -5.22,12.08c0,4.73 1.75,8.74 5.22,12.09c3.47,3.3 7.7,4.97 12.63,4.97c4.43,0 8.28,-1.38 11.62,-4.09c3.31,-2.72 5.27,-5.73 5.81,-9.08c-1.66,0 -14.97,0 -16.64,0c-1.13,0 -2.05,-0.37 -2.88,-1.13c-0.8,-0.75 -1.17,-1.63 -1.17,-2.71c0,-0.01 0,-0.08 0,-0.09c0,-1.04 0.37,-1.96 1.17,-2.71c0.79,-0.76 1.75,-1.13 2.88,-1.13c2.12,0 19.04,0 21.16,0c1.13,0 2.05,0.37 2.89,1.13c0.79,0.75 1.17,1.67 1.21,2.71c0,0.01 0,0.04 0,0.04c0,6.86 -2.55,12.67 -7.61,17.52c-5.1,4.85 -11.25,7.28 -18.44,7.28c-7.19,0 -13.3,-2.43 -18.4,-7.28c-5.1,-4.85 -7.61,-10.7 -7.61,-17.52c0,-6.85 2.55,-12.66 7.61,-17.51c5.1,-4.85 11.21,-7.28 18.4,-7.28c7.61,0 14.01,2.63 19.15,7.99"/>
  <path id="e201wLCD0b" d="m485.47,296.13c5.1,4.85 7.61,10.7 7.61,17.51c0,6.82 -2.55,12.67 -7.61,17.52c-5.1,4.85 -11.25,7.28 -18.44,7.28c-7.19,0 -13.3,-2.43 -18.4,-7.28c-5.1,-4.85 -7.61,-10.7 -7.61,-17.52c0,-6.81 2.55,-12.66 7.61,-17.51c5.1,-4.85 11.21,-7.28 18.4,-7.28c7.19,0 13.34,2.43 18.44,7.28m-31.03,5.43c-3.47,3.35 -5.22,7.36 -5.22,12.08c0,4.73 1.75,8.74 5.22,12.09c3.47,3.3 7.7,4.97 12.63,4.97c4.93,0 9.16,-1.67 12.67,-4.97c3.47,-3.35 5.23,-7.36 5.23,-12.09c0,-4.72 -1.76,-8.73 -5.23,-12.08c-3.47,-3.34 -7.69,-4.97 -12.67,-4.97c-4.93,0 -9.16,1.67 -12.63,4.97"/>
  <path id="aVyPxHMvx" d="m505.49,338.44c-1.29,0 -2.38,-0.42 -3.3,-1.3c-0.92,-0.88 -1.38,-1.92 -1.38,-3.13c0,-1.22 0.46,-2.26 1.38,-3.1c0.92,-0.88 2.01,-1.29 3.3,-1.29c1.26,0 2.35,0.41 3.27,1.29c0.92,0.84 1.38,1.88 1.38,3.1c0,1.25 -0.46,2.3 -1.38,3.13c-0.92,0.88 -2.01,1.3 -3.27,1.3m2.89,-12.5l-5.81,0l-1.17,-14.43c0,-11.29 0,-17.56 0,-18.81c0,-1.05 0.41,-1.97 1.21,-2.72c0.79,-0.75 1.76,-1.13 2.84,-1.13c0.01,0 0.08,0 0.09,0c1.08,0 2.04,0.38 2.84,1.13c0.79,0.75 1.21,1.67 1.21,2.72c0,1.25 0,7.52 0,18.81l-1.21,14.43z"/>
  <path id="d3QpGNKEQc" d="m168.87,338.44c0,0 0,0 0,0c-2.38,0 -4.26,-1.84 -4.26,-4.1c0,-2.54 0,-22.84 0,-25.38c0,-0.92 -0.46,-1.75 -1.21,-2.26c-1.19,-0.78 -10.73,-7.07 -11.92,-7.86c-1.92,-1.29 -4.51,-1.29 -6.44,0c-1.2,0.79 -10.84,7.12 -12.04,7.91c-0.79,0.5 -1.25,1.33 -1.25,2.25c0,1.9 0,17.09 0,18.99c0,1.5 1.29,2.71 2.84,2.71c0.67,0 6.02,0 6.69,0c1.59,0 2.84,-1.21 2.84,-2.71c0,-0.51 0,-3.06 0,-7.66c-1.45,0 -2.26,0 -2.42,0c-1.59,0 -2.85,-1.21 -2.85,-2.71c0,-0.23 0,-2.04 0,-2.26c0,-1.51 1.3,-2.72 2.85,-2.72c0.76,0 6.85,0 7.61,0c1.59,0 2.84,1.21 2.84,2.72c0,1.76 0,15.84 0,17.6c0,3.01 -2.55,5.48 -5.69,5.48c-1.71,0 -15.39,0 -17.1,0c-3.13,0 -5.68,-2.47 -5.68,-5.48c0,-2.66 0,-23.93 0,-26.59c0,-1.8 0.92,-3.47 2.46,-4.52c1.89,-1.23 16.97,-11.13 18.86,-12.37c1.97,-1.3 4.52,-1.26 6.44,0c1.87,1.24 16.86,11.14 18.73,12.37c1.55,1.01 2.47,2.72 2.47,4.52c0,2.85 0,25.63 0,28.47c0,2.01 -1.68,3.6 -3.77,3.6"/>
 </defs>
 <g>
  <title>background</title>
  <rect fill="none" id="canvas_background" height="131" width="442" y="-1" x="-1"/>
 </g>
 <g>
  <title>Layer 1</title>
  <g stroke="null" id="svg_1">
   <g stroke="null" id="svg_2">
    <g stroke="null" id="svg_3">
     <use stroke="null" x="-98" y="-249.69" id="svg_4" fill="#be2c2d" xlink:href="#a2nkyNfNsb"/>
     <g stroke="null" id="svg_5">
      <use stroke="#000000" x="-98" y="-249.69" id="svg_6" stroke-opacity="0" fill-opacity="0" xlink:href="#a2nkyNfNsb"/>
     </g>
    </g>
    <g stroke="null" id="svg_7">
     <use stroke="null" x="-98" y="-249.69" id="svg_8" fill="#ffffff" xlink:href="#c47kjMKrU0"/>
     <g stroke="null" id="svg_9">
      <use stroke="#000000" x="-98" y="-249.69" id="svg_10" stroke-opacity="0" fill-opacity="0" xlink:href="#c47kjMKrU0"/>
     </g>
    </g>
    <g stroke="null" id="svg_11">
     <use stroke="null" x="-98" y="-249.69" id="svg_12" fill="#ffffff" xlink:href="#c1I7lDvEKu"/>
     <g stroke="null" id="svg_13">
      <use stroke="#000000" x="-98" y="-249.69" id="svg_14" stroke-opacity="0" fill-opacity="0" xlink:href="#c1I7lDvEKu"/>
     </g>
    </g>
    <g stroke="null" id="svg_15">
     <use stroke="null" x="-98" y="-249.69" id="svg_16" fill="#ffffff" xlink:href="#c2Cub2okq3"/>
     <g stroke="null" id="svg_17">
      <use stroke="#000000" x="-98" y="-249.69" id="svg_18" stroke-opacity="0" fill-opacity="0" xlink:href="#c2Cub2okq3"/>
     </g>
    </g>
    <g stroke="null" id="svg_19">
     <use stroke="null" x="-98" y="-249.69" id="svg_20" fill="#ffffff" xlink:href="#c1BOsh7ruQ"/>
     <g stroke="null" id="svg_21">
      <use stroke="#000000" x="-98" y="-249.69" id="svg_22" stroke-opacity="0" fill-opacity="0" xlink:href="#c1BOsh7ruQ"/>
     </g>
    </g>
    <g stroke="null" id="svg_23">
     <use stroke="null" x="-98" y="-249.69" id="svg_24" fill="#ffffff" xlink:href="#b3goSZoVH"/>
     <g stroke="null" id="svg_25">
      <use stroke="#000000" x="-98" y="-249.69" id="svg_26" stroke-opacity="0" fill-opacity="0" xlink:href="#b3goSZoVH"/>
     </g>
    </g>
    <g stroke="null" id="svg_27">
     <use stroke="null" x="-98" y="-249.69" id="svg_28" fill="#ffffff" xlink:href="#fhdyB3217"/>
     <g stroke="null" id="svg_29">
      <use stroke="#000000" x="-98" y="-249.69" id="svg_30" stroke-opacity="0" fill-opacity="0" xlink:href="#fhdyB3217"/>
     </g>
    </g>
    <g stroke="null" id="svg_31">
     <use stroke="null" x="-98" y="-249.69" id="svg_32" fill="#ffffff" xlink:href="#e201wLCD0b"/>
     <g stroke="null" id="svg_33">
      <use stroke="#000000" x="-98" y="-249.69" id="svg_34" stroke-opacity="0" fill-opacity="0" xlink:href="#e201wLCD0b"/>
     </g>
    </g>
    <g stroke="null" id="svg_35">
     <use stroke="null" x="-98" y="-249.69" id="svg_36" fill="#ffffff" xlink:href="#aVyPxHMvx"/>
     <g stroke="null" id="svg_37">
      <use stroke="#000000" x="-98" y="-249.69" id="svg_38" stroke-opacity="0" fill-opacity="0" xlink:href="#aVyPxHMvx"/>
     </g>
    </g>
    <g stroke="null" id="svg_39">
     <use stroke="null" x="-98" y="-249.69" id="svg_40" fill="#ffffff" xlink:href="#d3QpGNKEQc"/>
     <g stroke="null" id="svg_41">
      <use stroke="#000000" x="-98" y="-249.69" id="svg_42" stroke-opacity="0" fill-opacity="0" xlink:href="#d3QpGNKEQc"/>
     </g>
    </g>
   </g>
  </g>
 </g>
</svg>